<?xml version="1.0" standalone="no"?>
<!DOCTYPE svg PUBLIC "-//W3C//DTD SVG 20010904//EN"
 "http://www.w3.org/TR/2001/REC-SVG-20010904/DTD/svg10.dtd">
<svg version="1.0" xmlns="http://www.w3.org/2000/svg"
 width="134.000000pt" height="134.000000pt" viewBox="0 0 134.000000 134.000000"
 preserveAspectRatio="xMidYMid meet">
<metadata>
Created by potrace 1.14, written by Peter Selinger 2001-2017
</metadata>
<g transform="translate(0.000000,134.000000) scale(0.100000,-0.100000)"
fill="#000000" stroke="none">
<path d="M515 1153 c-29 -15 -51 -37 -98 -95 -28 -35 -39 -35 -59 0 -48 80
-122 110 -158 62 -14 -19 -17 -41 -14 -144 2 -66 6 -137 9 -156 18 -107 9
-148 -55 -259 -28 -49 -58 -110 -65 -136 -17 -55 -14 -161 5 -192 16 -24 87
-63 117 -63 11 0 40 -7 64 -15 48 -17 145 -20 276 -9 51 4 87 3 95 -3 8 -6 71
-9 158 -6 214 5 233 6 310 3 117 -4 190 49 190 137 0 35 -31 103 -68 152 -84
111 -91 165 -32 256 88 138 95 240 19 278 -35 17 -38 17 -116 -6 -54 -16 -86
-20 -99 -14 -10 5 -39 37 -64 72 -43 61 -89 95 -129 95 -10 0 -38 -7 -62 -16
l-44 -15 -30 34 c-51 59 -94 70 -150 40z"/>
</g>
</svg>
